<svg xmlns="http://www.w3.org/2000/svg" width="40" height="40" viewBox="0 0 40 40"><rect width="100%" height="100%" fill="#DDDDDD"/><path fill="#999999" d="M14.345 19.98h3.6v4.39q-.83.61-1.76.89-.94.28-2 .28-1.33 0-2.41-.41-1.07-.41-1.83-1.15-.76-.73-1.18-1.75-.41-1.02-.41-2.23 0-1.22.4-2.25.4-1.02 1.13-1.75t1.77-1.14q1.04-.4 2.34-.4.66 0 1.23.1.58.11 1.07.29t.9.44q.4.27.74.58l-.58.92q-.13.22-.35.26-.22.05-.47-.1t-.5-.29-.55-.25q-.3-.1-.68-.17t-.88-.07q-.8 0-1.45.27t-1.1.77q-.46.51-.71 1.21-.25.71-.25 1.58 0 .93.27 1.66.26.73.75 1.24.48.5 1.17.77.68.27 1.52.27.6 0 1.07-.13t.92-.35V21.5h-1.36q-.2 0-.31-.11-.1-.11-.1-.27zm15.78-5.4h1.52v10.84h-1.77v-7q0-.42.04-.91l-3.28 6.16q-.23.44-.71.44h-.28q-.48 0-.72-.44l-3.31-6.18.04.48q.01.24.01.45v7h-1.78V14.58h1.76q.1.01.18.04.07.03.14.1.06.07.12.18l3.25 6.02q.13.24.24.5l.21.52q.1-.28.22-.54.11-.25.24-.49l3.2-6.01q.06-.11.13-.18.06-.07.14-.1t.18-.04z"/></svg>